# xmcd
#
# Track frame offsets:
#	150
#	10472
#	29005
#	37880
#	52101
#	72498
#	85322
#	99565
#	113363
#	124900
#	139846
#	157580
#
# Disc length: 2330 seconds
#
# Revision: 4
# Processed by: cddbd v1.5.1PL0 Copyright (c) Steve Scherf et al.
# Submitted via: EasyCDDAExtractor 8.0.1.1
#
DISCID=9c09180c
DTITLE=Elvis Presley - Elvis Country
DYEAR=1971
DGENRE=Country
TTITLE0=Snowbird
TTITLE1=Tomorrow Never Comes
TTITLE2=Little Cabin On The Hill
TTITLE3=Whole Lotta Shakin' Goin' On
TTITLE4=Funny How Time Slips Away
TTITLE5=I Really Don't Want To Know
TTITLE6=There Goes My Everything
TTITLE7=It's Your Baby, You Rock It
TTITLE8=The Fool
TTITLE9=Faded Love
TTITLE10=I Washed My Hands In Muddy Water
TTITLE11=Make The World Go Away
EXTD=
EXTT0=
EXTT1=
EXTT2=
EXTT3=
EXTT4=
EXTT5=
EXTT6=
EXTT7=
EXTT8=
EXTT9=
EXTT10=
EXTT11=
PLAYORDER=
